<?xml version="1.0" encoding="utf-8" standalone="no"?>
<!DOCTYPE svg PUBLIC "-//W3C//DTD SVG 1.1//EN"
  "http://www.w3.org/Graphics/SVG/1.1/DTD/svg11.dtd">
<svg xmlns:xlink="http://www.w3.org/1999/xlink" width="378.636463pt" height="257.937865pt" viewBox="0 0 378.636463 257.937865" xmlns="http://www.w3.org/2000/svg" version="1.1">
 <metadata>
  <rdf:RDF xmlns:dc="http://purl.org/dc/elements/1.1/" xmlns:cc="http://creativecommons.org/ns#" xmlns:rdf="http://www.w3.org/1999/02/22-rdf-syntax-ns#">
   <cc:Work>
    <dc:type rdf:resource="http://purl.org/dc/dcmitype/StillImage"/>
    <dc:date>2025-01-08T14:47:12.355864</dc:date>
    <dc:format>image/svg+xml</dc:format>
    <dc:creator>
     <cc:Agent>
      <dc:title>Matplotlib v3.10.0, https://matplotlib.org/</dc:title>
     </cc:Agent>
    </dc:creator>
   </cc:Work>
  </rdf:RDF>
 </metadata>
 <defs>
  <style type="text/css">*{stroke-linejoin: round; stroke-linecap: butt}</style>
 </defs>
 <g id="figure_1">
  <g id="patch_1">
   <path d="M 0 257.937865 
L 378.636463 257.937865 
L 378.636463 0 
L 0 0 
z
" style="fill: #ffffff"/>
  </g>
  <g id="axes_1">
   <g id="patch_2">
    <path d="M 29.157642 233.11109 
L 363.957642 233.11109 
L 363.957642 11.35109 
L 29.157642 11.35109 
z
" style="fill: #ffffff"/>
   </g>
   <g id="matplotlib.axis_1">
    <g id="xtick_1">
     <g id="line2d_1">
      <defs>
       <path id="m176f19c31b" d="M 0 0 
L 0 3.5 
" style="stroke: #000000; stroke-width: 0.8"/>
      </defs>
      <g>
       <use xlink:href="#m176f19c31b" x="29.157642" y="233.11109" style="stroke: #000000; stroke-width: 0.8"/>
      </g>
     </g>
     <g id="text_1">
      <!-- $\mathdefault{0.0}$ -->
      <g transform="translate(21.678821 248.41327) scale(0.12 -0.12)">
       <defs>
        <path id="CMR17-30" d="M 2688 2025 
C 2688 2416 2682 3080 2413 3591 
C 2176 4039 1798 4198 1466 4198 
C 1158 4198 768 4058 525 3597 
C 269 3118 243 2524 243 2025 
C 243 1661 250 1106 448 619 
C 723 -39 1216 -128 1466 -128 
C 1760 -128 2208 -7 2470 600 
C 2662 1042 2688 1559 2688 2025 
z
M 1466 -26 
C 1056 -26 813 325 723 812 
C 653 1188 653 1738 653 2096 
C 653 2588 653 2997 736 3387 
C 858 3929 1216 4096 1466 4096 
C 1728 4096 2067 3923 2189 3400 
C 2272 3036 2278 2607 2278 2096 
C 2278 1680 2278 1169 2202 792 
C 2067 95 1690 -26 1466 -26 
z
" transform="scale(0.015625)"/>
        <path id="CMMI12-3a" d="M 1178 307 
C 1178 492 1024 619 870 619 
C 685 619 557 466 557 313 
C 557 128 710 0 864 0 
C 1050 0 1178 153 1178 307 
z
" transform="scale(0.015625)"/>
       </defs>
       <use xlink:href="#CMR17-30" transform="scale(0.996264)"/>
       <use xlink:href="#CMMI12-3a" transform="translate(45.690477 0) scale(0.996264)"/>
       <use xlink:href="#CMR17-30" transform="translate(72.787654 0) scale(0.996264)"/>
      </g>
     </g>
    </g>
    <g id="xtick_2">
     <g id="line2d_2">
      <g>
       <use xlink:href="#m176f19c31b" x="71.007642" y="233.11109" style="stroke: #000000; stroke-width: 0.8"/>
      </g>
     </g>
     <g id="text_2">
      <!-- $\mathdefault{0.5}$ -->
      <g transform="translate(63.528821 248.41327) scale(0.12 -0.12)">
       <defs>
        <path id="CMR17-35" d="M 730 3692 
C 794 3666 1056 3584 1325 3584 
C 1920 3584 2246 3911 2432 4100 
C 2432 4157 2432 4192 2394 4192 
C 2387 4192 2374 4192 2323 4163 
C 2099 4058 1837 3973 1517 3973 
C 1325 3973 1037 3999 723 4139 
C 653 4171 640 4171 634 4171 
C 602 4171 595 4164 595 4037 
L 595 2203 
C 595 2089 595 2057 659 2057 
C 691 2057 704 2070 736 2114 
C 941 2401 1222 2522 1542 2522 
C 1766 2522 2246 2382 2246 1289 
C 2246 1085 2246 715 2054 421 
C 1894 159 1645 25 1370 25 
C 947 25 518 320 403 814 
C 429 807 480 795 506 795 
C 589 795 749 840 749 1038 
C 749 1210 627 1280 506 1280 
C 358 1280 262 1190 262 1011 
C 262 454 704 -128 1382 -128 
C 2042 -128 2669 440 2669 1264 
C 2669 2030 2170 2624 1549 2624 
C 1222 2624 947 2503 730 2274 
L 730 3692 
z
" transform="scale(0.015625)"/>
       </defs>
       <use xlink:href="#CMR17-30" transform="scale(0.996264)"/>
       <use xlink:href="#CMMI12-3a" transform="translate(45.690477 0) scale(0.996264)"/>
       <use xlink:href="#CMR17-35" transform="translate(72.787654 0) scale(0.996264)"/>
      </g>
     </g>
    </g>
    <g id="xtick_3">
     <g id="line2d_3">
      <g>
       <use xlink:href="#m176f19c31b" x="112.857642" y="233.11109" style="stroke: #000000; stroke-width: 0.8"/>
      </g>
     </g>
     <g id="text_3">
      <!-- $\mathdefault{1.0}$ -->
      <g transform="translate(105.378821 248.41327) scale(0.12 -0.12)">
       <defs>
        <path id="CMR17-31" d="M 1702 4058 
C 1702 4192 1696 4192 1606 4192 
C 1357 3916 979 3827 621 3827 
C 602 3827 570 3827 563 3808 
C 557 3795 557 3782 557 3648 
C 755 3648 1088 3686 1344 3839 
L 1344 461 
C 1344 236 1331 160 781 160 
L 589 160 
L 589 0 
C 896 0 1216 0 1523 0 
C 1830 0 2150 0 2458 0 
L 2458 160 
L 2266 160 
C 1715 160 1702 230 1702 458 
L 1702 4058 
z
" transform="scale(0.015625)"/>
       </defs>
       <use xlink:href="#CMR17-31" transform="scale(0.996264)"/>
       <use xlink:href="#CMMI12-3a" transform="translate(45.690477 0) scale(0.996264)"/>
       <use xlink:href="#CMR17-30" transform="translate(72.787654 0) scale(0.996264)"/>
      </g>
     </g>
    </g>
    <g id="xtick_4">
     <g id="line2d_4">
      <g>
       <use xlink:href="#m176f19c31b" x="154.707642" y="233.11109" style="stroke: #000000; stroke-width: 0.8"/>
      </g>
     </g>
     <g id="text_4">
      <!-- $\mathdefault{1.5}$ -->
      <g transform="translate(147.228821 248.41327) scale(0.12 -0.12)">
       <use xlink:href="#CMR17-31" transform="scale(0.996264)"/>
       <use xlink:href="#CMMI12-3a" transform="translate(45.690477 0) scale(0.996264)"/>
       <use xlink:href="#CMR17-35" transform="translate(72.787654 0) scale(0.996264)"/>
      </g>
     </g>
    </g>
    <g id="xtick_5">
     <g id="line2d_5">
      <g>
       <use xlink:href="#m176f19c31b" x="196.557642" y="233.11109" style="stroke: #000000; stroke-width: 0.8"/>
      </g>
     </g>
     <g id="text_5">
      <!-- $\mathdefault{2.0}$ -->
      <g transform="translate(189.078821 248.41327) scale(0.12 -0.12)">
       <defs>
        <path id="CMR17-32" d="M 2669 989 
L 2554 989 
C 2490 536 2438 459 2413 420 
C 2381 369 1920 369 1830 369 
L 602 369 
C 832 619 1280 1072 1824 1597 
C 2214 1967 2669 2402 2669 3035 
C 2669 3790 2067 4224 1395 4224 
C 691 4224 262 3604 262 3030 
C 262 2780 448 2748 525 2748 
C 589 2748 781 2787 781 3010 
C 781 3207 614 3264 525 3264 
C 486 3264 448 3258 422 3245 
C 544 3790 915 4058 1306 4058 
C 1862 4058 2227 3617 2227 3035 
C 2227 2479 1901 2000 1536 1584 
L 262 146 
L 262 0 
L 2515 0 
L 2669 989 
z
" transform="scale(0.015625)"/>
       </defs>
       <use xlink:href="#CMR17-32" transform="scale(0.996264)"/>
       <use xlink:href="#CMMI12-3a" transform="translate(45.690477 0) scale(0.996264)"/>
       <use xlink:href="#CMR17-30" transform="translate(72.787654 0) scale(0.996264)"/>
      </g>
     </g>
    </g>
    <g id="xtick_6">
     <g id="line2d_6">
      <g>
       <use xlink:href="#m176f19c31b" x="238.407642" y="233.11109" style="stroke: #000000; stroke-width: 0.8"/>
      </g>
     </g>
     <g id="text_6">
      <!-- $\mathdefault{2.5}$ -->
      <g transform="translate(230.928821 248.41327) scale(0.12 -0.12)">
       <use xlink:href="#CMR17-32" transform="scale(0.996264)"/>
       <use xlink:href="#CMMI12-3a" transform="translate(45.690477 0) scale(0.996264)"/>
       <use xlink:href="#CMR17-35" transform="translate(72.787654 0) scale(0.996264)"/>
      </g>
     </g>
    </g>
    <g id="xtick_7">
     <g id="line2d_7">
      <g>
       <use xlink:href="#m176f19c31b" x="280.257642" y="233.11109" style="stroke: #000000; stroke-width: 0.8"/>
      </g>
     </g>
     <g id="text_7">
      <!-- $\mathdefault{3.0}$ -->
      <g transform="translate(272.778821 248.41327) scale(0.12 -0.12)">
       <defs>
        <path id="CMR17-33" d="M 1414 2157 
C 1984 2157 2234 1662 2234 1090 
C 2234 320 1824 25 1453 25 
C 1114 25 563 194 390 693 
C 422 680 454 680 486 680 
C 640 680 755 782 755 948 
C 755 1133 614 1216 486 1216 
C 378 1216 211 1165 211 926 
C 211 335 787 -128 1466 -128 
C 2176 -128 2720 430 2720 1085 
C 2720 1707 2208 2157 1600 2227 
C 2086 2328 2554 2756 2554 3329 
C 2554 3820 2048 4179 1472 4179 
C 890 4179 378 3829 378 3329 
C 378 3110 544 3072 627 3072 
C 762 3072 877 3155 877 3321 
C 877 3486 762 3569 627 3569 
C 602 3569 570 3569 544 3557 
C 730 3959 1235 4032 1459 4032 
C 1683 4032 2106 3925 2106 3320 
C 2106 3143 2080 2828 1862 2550 
C 1670 2304 1453 2304 1242 2284 
C 1210 2284 1062 2269 1037 2269 
C 992 2263 966 2257 966 2208 
C 966 2163 973 2157 1101 2157 
L 1414 2157 
z
" transform="scale(0.015625)"/>
       </defs>
       <use xlink:href="#CMR17-33" transform="scale(0.996264)"/>
       <use xlink:href="#CMMI12-3a" transform="translate(45.690477 0) scale(0.996264)"/>
       <use xlink:href="#CMR17-30" transform="translate(72.787654 0) scale(0.996264)"/>
      </g>
     </g>
    </g>
    <g id="xtick_8">
     <g id="line2d_8">
      <g>
       <use xlink:href="#m176f19c31b" x="322.107642" y="233.11109" style="stroke: #000000; stroke-width: 0.8"/>
      </g>
     </g>
     <g id="text_8">
      <!-- $\mathdefault{3.5}$ -->
      <g transform="translate(314.628821 248.41327) scale(0.12 -0.12)">
       <use xlink:href="#CMR17-33" transform="scale(0.996264)"/>
       <use xlink:href="#CMMI12-3a" transform="translate(45.690477 0) scale(0.996264)"/>
       <use xlink:href="#CMR17-35" transform="translate(72.787654 0) scale(0.996264)"/>
      </g>
     </g>
    </g>
    <g id="xtick_9">
     <g id="line2d_9">
      <g>
       <use xlink:href="#m176f19c31b" x="363.957642" y="233.11109" style="stroke: #000000; stroke-width: 0.8"/>
      </g>
     </g>
     <g id="text_9">
      <!-- $\mathdefault{4.0}$ -->
      <g transform="translate(356.478821 248.41327) scale(0.12 -0.12)">
       <defs>
        <path id="CMR17-34" d="M 2150 4122 
C 2150 4256 2144 4256 2029 4256 
L 128 1254 
L 128 1088 
L 1779 1088 
L 1779 457 
C 1779 224 1766 160 1318 160 
L 1197 160 
L 1197 0 
C 1402 0 1747 0 1965 0 
C 2182 0 2528 0 2733 0 
L 2733 160 
L 2611 160 
C 2163 160 2150 224 2150 457 
L 2150 1088 
L 2803 1088 
L 2803 1254 
L 2150 1254 
L 2150 4122 
z
M 1798 3703 
L 1798 1254 
L 256 1254 
L 1798 3703 
z
" transform="scale(0.015625)"/>
       </defs>
       <use xlink:href="#CMR17-34" transform="scale(0.996264)"/>
       <use xlink:href="#CMMI12-3a" transform="translate(45.690477 0) scale(0.996264)"/>
       <use xlink:href="#CMR17-30" transform="translate(72.787654 0) scale(0.996264)"/>
      </g>
     </g>
    </g>
   </g>
   <g id="matplotlib.axis_2">
    <g id="ytick_1">
     <g id="line2d_10">
      <defs>
       <path id="m55eebd60e7" d="M 0 0 
L -3.5 0 
" style="stroke: #000000; stroke-width: 0.8"/>
      </defs>
      <g>
       <use xlink:href="#m55eebd60e7" x="29.157642" y="233.11109" style="stroke: #000000; stroke-width: 0.8"/>
      </g>
     </g>
     <g id="text_10">
      <!-- $\mathdefault{0.0}$ -->
      <g transform="translate(7.2 237.26218) scale(0.12 -0.12)">
       <use xlink:href="#CMR17-30" transform="scale(0.996264)"/>
       <use xlink:href="#CMMI12-3a" transform="translate(45.690477 0) scale(0.996264)"/>
       <use xlink:href="#CMR17-30" transform="translate(72.787654 0) scale(0.996264)"/>
      </g>
     </g>
    </g>
    <g id="ytick_2">
     <g id="line2d_11">
      <g>
       <use xlink:href="#m55eebd60e7" x="29.157642" y="205.39109" style="stroke: #000000; stroke-width: 0.8"/>
      </g>
     </g>
     <g id="text_11">
      <!-- $\mathdefault{0.5}$ -->
      <g transform="translate(7.2 209.54218) scale(0.12 -0.12)">
       <use xlink:href="#CMR17-30" transform="scale(0.996264)"/>
       <use xlink:href="#CMMI12-3a" transform="translate(45.690477 0) scale(0.996264)"/>
       <use xlink:href="#CMR17-35" transform="translate(72.787654 0) scale(0.996264)"/>
      </g>
     </g>
    </g>
    <g id="ytick_3">
     <g id="line2d_12">
      <g>
       <use xlink:href="#m55eebd60e7" x="29.157642" y="177.67109" style="stroke: #000000; stroke-width: 0.8"/>
      </g>
     </g>
     <g id="text_12">
      <!-- $\mathdefault{1.0}$ -->
      <g transform="translate(7.2 181.82218) scale(0.12 -0.12)">
       <use xlink:href="#CMR17-31" transform="scale(0.996264)"/>
       <use xlink:href="#CMMI12-3a" transform="translate(45.690477 0) scale(0.996264)"/>
       <use xlink:href="#CMR17-30" transform="translate(72.787654 0) scale(0.996264)"/>
      </g>
     </g>
    </g>
    <g id="ytick_4">
     <g id="line2d_13">
      <g>
       <use xlink:href="#m55eebd60e7" x="29.157642" y="149.95109" style="stroke: #000000; stroke-width: 0.8"/>
      </g>
     </g>
     <g id="text_13">
      <!-- $\mathdefault{1.5}$ -->
      <g transform="translate(7.2 154.10218) scale(0.12 -0.12)">
       <use xlink:href="#CMR17-31" transform="scale(0.996264)"/>
       <use xlink:href="#CMMI12-3a" transform="translate(45.690477 0) scale(0.996264)"/>
       <use xlink:href="#CMR17-35" transform="translate(72.787654 0) scale(0.996264)"/>
      </g>
     </g>
    </g>
    <g id="ytick_5">
     <g id="line2d_14">
      <g>
       <use xlink:href="#m55eebd60e7" x="29.157642" y="122.23109" style="stroke: #000000; stroke-width: 0.8"/>
      </g>
     </g>
     <g id="text_14">
      <!-- $\mathdefault{2.0}$ -->
      <g transform="translate(7.2 126.38218) scale(0.12 -0.12)">
       <use xlink:href="#CMR17-32" transform="scale(0.996264)"/>
       <use xlink:href="#CMMI12-3a" transform="translate(45.690477 0) scale(0.996264)"/>
       <use xlink:href="#CMR17-30" transform="translate(72.787654 0) scale(0.996264)"/>
      </g>
     </g>
    </g>
    <g id="ytick_6">
     <g id="line2d_15">
      <g>
       <use xlink:href="#m55eebd60e7" x="29.157642" y="94.51109" style="stroke: #000000; stroke-width: 0.8"/>
      </g>
     </g>
     <g id="text_15">
      <!-- $\mathdefault{2.5}$ -->
      <g transform="translate(7.2 98.66218) scale(0.12 -0.12)">
       <use xlink:href="#CMR17-32" transform="scale(0.996264)"/>
       <use xlink:href="#CMMI12-3a" transform="translate(45.690477 0) scale(0.996264)"/>
       <use xlink:href="#CMR17-35" transform="translate(72.787654 0) scale(0.996264)"/>
      </g>
     </g>
    </g>
    <g id="ytick_7">
     <g id="line2d_16">
      <g>
       <use xlink:href="#m55eebd60e7" x="29.157642" y="66.79109" style="stroke: #000000; stroke-width: 0.8"/>
      </g>
     </g>
     <g id="text_16">
      <!-- $\mathdefault{3.0}$ -->
      <g transform="translate(7.2 70.94218) scale(0.12 -0.12)">
       <use xlink:href="#CMR17-33" transform="scale(0.996264)"/>
       <use xlink:href="#CMMI12-3a" transform="translate(45.690477 0) scale(0.996264)"/>
       <use xlink:href="#CMR17-30" transform="translate(72.787654 0) scale(0.996264)"/>
      </g>
     </g>
    </g>
    <g id="ytick_8">
     <g id="line2d_17">
      <g>
       <use xlink:href="#m55eebd60e7" x="29.157642" y="39.07109" style="stroke: #000000; stroke-width: 0.8"/>
      </g>
     </g>
     <g id="text_17">
      <!-- $\mathdefault{3.5}$ -->
      <g transform="translate(7.2 43.22218) scale(0.12 -0.12)">
       <use xlink:href="#CMR17-33" transform="scale(0.996264)"/>
       <use xlink:href="#CMMI12-3a" transform="translate(45.690477 0) scale(0.996264)"/>
       <use xlink:href="#CMR17-35" transform="translate(72.787654 0) scale(0.996264)"/>
      </g>
     </g>
    </g>
    <g id="ytick_9">
     <g id="line2d_18">
      <g>
       <use xlink:href="#m55eebd60e7" x="29.157642" y="11.35109" style="stroke: #000000; stroke-width: 0.8"/>
      </g>
     </g>
     <g id="text_18">
      <!-- $\mathdefault{4.0}$ -->
      <g transform="translate(7.2 15.50218) scale(0.12 -0.12)">
       <use xlink:href="#CMR17-34" transform="scale(0.996264)"/>
       <use xlink:href="#CMMI12-3a" transform="translate(45.690477 0) scale(0.996264)"/>
       <use xlink:href="#CMR17-30" transform="translate(72.787654 0) scale(0.996264)"/>
      </g>
     </g>
    </g>
   </g>
   <g id="line2d_19">
    <defs>
     <path id="meec8630b80" d="M -1.5 3 
L 0 1.5 
L 1.5 3 
L 3 1.5 
L 1.5 0 
L 3 -1.5 
L 1.5 -3 
L 0 -1.5 
L -1.5 -3 
L -3 -1.5 
L -1.5 0 
L -3 1.5 
z
" style="stroke: #ff0000; stroke-linejoin: miter"/>
    </defs>
    <g clip-path="url(#p90f7308c1a)">
     <use xlink:href="#meec8630b80" x="96.117642" y="172.12709" style="fill: #ff0000; stroke: #ff0000; stroke-linejoin: miter"/>
     <use xlink:href="#meec8630b80" x="188.187642" y="105.59909" style="fill: #ff0000; stroke: #ff0000; stroke-linejoin: miter"/>
     <use xlink:href="#meec8630b80" x="288.627642" y="72.33509" style="fill: #ff0000; stroke: #ff0000; stroke-linejoin: miter"/>
    </g>
   </g>
   <g id="line2d_20">
    <path d="M 29.157642 200.11242 
L 37.527642 195.797317 
L 45.897642 191.482213 
L 54.267642 187.16711 
L 62.637642 182.852007 
L 71.007642 178.536904 
L 79.377642 174.2218 
L 87.747642 169.906697 
L 96.117642 165.591594 
L 104.487642 161.27649 
L 112.857642 156.961387 
L 121.227642 152.646284 
L 129.597642 148.331181 
L 137.967642 144.016077 
L 146.337642 139.700974 
L 154.707642 135.385871 
L 163.077642 131.070767 
L 171.447642 126.755664 
L 179.817642 122.440561 
L 188.187642 118.125458 
L 196.557642 113.810354 
L 204.927642 109.495251 
L 213.297642 105.180148 
L 221.667642 100.865045 
L 230.037642 96.549941 
L 238.407642 92.234838 
L 246.777642 87.919735 
L 255.147642 83.604631 
L 263.517642 79.289528 
L 271.887642 74.974425 
L 280.257642 70.659322 
L 288.627642 66.344218 
L 296.997642 62.029115 
L 305.367642 57.714012 
L 313.737642 53.398909 
L 322.107642 49.083805 
L 330.477642 44.768702 
L 338.847642 40.453599 
L 347.217642 36.138495 
L 355.587642 31.823392 
L 363.957642 27.508289 
L 372.327642 23.193186 
L 379.636463 19.425167 
" clip-path="url(#p90f7308c1a)" style="fill: none; stroke: #1f77b4; stroke-width: 1.5; stroke-linecap: square"/>
   </g>
   <g id="line2d_21">
    <path d="M 29.157642 242.161177 
L 37.527642 232.409873 
L 45.897642 222.943438 
L 54.267642 213.761873 
L 62.637642 204.865177 
L 71.007642 196.253351 
L 79.377642 187.926394 
L 87.747642 179.884307 
L 96.117642 172.12709 
L 104.487642 164.654742 
L 112.857642 157.467264 
L 121.227642 150.564655 
L 129.597642 143.946916 
L 137.967642 137.614046 
L 146.337642 131.566046 
L 154.707642 125.802916 
L 163.077642 120.324655 
L 171.447642 115.131264 
L 179.817642 110.222742 
L 188.187642 105.59909 
L 196.557642 101.260307 
L 204.927642 97.206394 
L 213.297642 93.437351 
L 221.667642 89.953177 
L 230.037642 86.753873 
L 238.407642 83.839438 
L 246.777642 81.209873 
L 255.147642 78.865177 
L 263.517642 76.805351 
L 271.887642 75.030394 
L 280.257642 73.540307 
L 288.627642 72.33509 
L 296.997642 71.414742 
L 305.367642 70.779264 
L 313.737642 70.428655 
L 322.107642 70.362916 
L 330.477642 70.582046 
L 338.847642 71.086046 
L 347.217642 71.874916 
L 355.587642 72.948655 
L 363.957642 74.307264 
L 372.327642 75.950742 
L 379.636463 77.634607 
" clip-path="url(#p90f7308c1a)" style="fill: none; stroke: #ff7f0e; stroke-width: 1.5; stroke-linecap: square"/>
   </g>
   <g id="line2d_22">
    <path d="M 29.157642 205.69987 
L 37.527642 202.201431 
L 45.897642 198.487374 
L 54.267642 194.568027 
L 62.637642 190.452732 
L 71.007642 186.148708 
L 79.377642 181.660102 
L 87.747642 176.987367 
L 96.117642 172.12709 
L 104.487642 167.072394 
L 112.857642 161.81398 
L 121.227642 156.341828 
L 129.597642 150.647533 
L 137.967642 144.727157 
L 146.337642 138.584437 
L 154.707642 132.234107 
L 163.077642 125.705079 
L 171.447642 119.04316 
L 179.817642 112.313013 
L 188.187642 105.59909 
L 196.557642 99.005297 
L 204.927642 92.653273 
L 213.297642 86.679219 
L 221.667642 81.229359 
L 230.037642 76.454219 
L 238.407642 72.502019 
L 246.777642 69.511564 
L 255.147642 67.605084 
L 263.517642 66.881509 
L 271.887642 67.410638 
L 280.257642 69.228619 
L 288.627642 72.33509 
L 296.997642 76.69217 
L 305.367642 82.225416 
L 313.737642 88.826659 
L 322.107642 96.358555 
L 330.477642 104.660521 
L 338.847642 113.555676 
L 347.217642 122.858319 
L 355.587642 132.381487 
L 363.957642 141.944141 
L 372.327642 151.377574 
L 379.636463 159.370279 
" clip-path="url(#p90f7308c1a)" style="fill: none; stroke: #2ca02c; stroke-width: 1.5; stroke-linecap: square"/>
   </g>
   <g id="patch_3">
    <path d="M 29.157642 233.11109 
L 29.157642 11.35109 
" style="fill: none; stroke: #000000; stroke-width: 0.8; stroke-linejoin: miter; stroke-linecap: square"/>
   </g>
   <g id="patch_4">
    <path d="M 363.957642 233.11109 
L 363.957642 11.35109 
" style="fill: none; stroke: #000000; stroke-width: 0.8; stroke-linejoin: miter; stroke-linecap: square"/>
   </g>
   <g id="patch_5">
    <path d="M 29.157642 233.11109 
L 363.957642 233.11109 
" style="fill: none; stroke: #000000; stroke-width: 0.8; stroke-linejoin: miter; stroke-linecap: square"/>
   </g>
   <g id="patch_6">
    <path d="M 29.157642 11.35109 
L 363.957642 11.35109 
" style="fill: none; stroke: #000000; stroke-width: 0.8; stroke-linejoin: miter; stroke-linecap: square"/>
   </g>
   <g id="legend_1">
    <g id="patch_7">
     <path d="M 37.557642 87.849473 
L 149.525269 87.849473 
Q 151.925269 87.849473 151.925269 85.449473 
L 151.925269 19.75109 
Q 151.925269 17.35109 149.525269 17.35109 
L 37.557642 17.35109 
Q 35.157642 17.35109 35.157642 19.75109 
L 35.157642 85.449473 
Q 35.157642 87.849473 37.557642 87.849473 
z
" style="fill: #ffffff; opacity: 0.8; stroke: #cccccc; stroke-linejoin: miter"/>
    </g>
    <g id="line2d_23">
     <g>
      <use xlink:href="#meec8630b80" x="51.957642" y="26.35109" style="fill: #ff0000; stroke: #ff0000; stroke-linejoin: miter"/>
     </g>
    </g>
    <g id="text_19">
     <!-- train -->
     <g transform="translate(73.557642 30.55109) scale(0.12 -0.12)">
      <defs>
       <path id="CMSS17-74" d="M 1069 2368 
L 1901 2368 
L 1901 2737 
L 1069 2737 
L 1069 3520 
L 614 3520 
L 614 2737 
L 109 2737 
L 109 2368 
L 602 2368 
L 602 749 
C 602 384 685 -64 1107 -64 
C 1427 -64 1722 25 2003 172 
L 1901 548 
C 1747 414 1562 337 1363 337 
C 1082 337 1069 696 1069 856 
L 1069 2368 
z
" transform="scale(0.015625)"/>
       <path id="CMSS17-72" d="M 954 1363 
C 954 1965 1395 2368 1958 2368 
L 1958 2789 
C 1549 2789 1165 2585 934 2253 
L 934 2758 
L 480 2758 
L 480 0 
L 954 0 
L 954 1363 
z
" transform="scale(0.015625)"/>
       <path id="CMSS17-61" d="M 2406 1791 
C 2406 2392 1978 2808 1402 2808 
C 1120 2808 813 2757 461 2553 
L 499 2135 
C 659 2248 934 2432 1395 2432 
C 1722 2432 1920 2180 1920 1782 
L 1920 1536 
C 896 1536 256 1238 256 726 
C 256 461 416 -64 947 -64 
C 1043 -64 1562 -64 1933 217 
L 1933 -19 
L 2406 -19 
L 2406 1791 
z
M 1920 816 
C 1920 701 1920 548 1728 434 
C 1562 325 1350 325 1261 325 
C 941 325 723 511 723 744 
C 723 1211 1722 1211 1920 1211 
L 1920 816 
z
" transform="scale(0.015625)"/>
       <path id="CMSS17-69" d="M 979 4183 
L 442 4183 
L 442 3648 
L 979 3648 
L 979 4183 
z
M 947 2739 
L 474 2739 
L 474 0 
L 947 0 
L 947 2739 
z
" transform="scale(0.015625)"/>
       <path id="CMSS17-6e" d="M 2618 1877 
C 2618 2283 2522 2816 1798 2816 
C 1389 2816 1120 2606 941 2389 
L 941 2758 
L 474 2758 
L 474 0 
L 960 0 
L 960 1559 
C 960 1964 1114 2428 1549 2428 
C 2112 2428 2131 2048 2131 1829 
L 2131 0 
L 2618 0 
L 2618 1877 
z
" transform="scale(0.015625)"/>
      </defs>
      <use xlink:href="#CMSS17-74" transform="scale(0.996264)"/>
      <use xlink:href="#CMSS17-72" transform="translate(33.831567 0) scale(0.996264)"/>
      <use xlink:href="#CMSS17-61" transform="translate(65.741339 0) scale(0.996264)"/>
      <use xlink:href="#CMSS17-69" transform="translate(110.66326 0) scale(0.996264)"/>
      <use xlink:href="#CMSS17-6e" transform="translate(132.843983 0) scale(0.996264)"/>
     </g>
    </g>
    <g id="line2d_24">
     <path d="M 39.957642 43.075686 
L 51.957642 43.075686 
L 63.957642 43.075686 
" style="fill: none; stroke: #1f77b4; stroke-width: 1.5; stroke-linecap: square"/>
    </g>
    <g id="text_20">
     <!-- linear with bias -->
     <g transform="translate(73.557642 47.275686) scale(0.12 -0.12)">
      <defs>
       <path id="CMSS17-6c" d="M 947 4416 
L 474 4416 
L 474 0 
L 947 0 
L 947 4416 
z
" transform="scale(0.015625)"/>
       <path id="CMSS17-65" d="M 2502 1377 
C 2502 1590 2490 2003 2285 2345 
C 2061 2713 1696 2816 1421 2816 
C 755 2816 192 2188 192 1375 
C 192 582 774 -64 1510 -64 
C 1798 -64 2150 19 2470 248 
C 2470 274 2458 414 2451 420 
C 2451 433 2432 630 2432 656 
C 2125 407 1773 325 1517 325 
C 1107 325 666 667 646 1377 
L 2502 1377 
z
M 698 1728 
C 781 2084 1062 2421 1421 2421 
C 1517 2421 1965 2421 2080 1728 
L 698 1728 
z
" transform="scale(0.015625)"/>
       <path id="CMSS17-77" d="M 4013 2752 
L 3526 2752 
L 3187 1601 
C 3117 1358 2918 685 2893 371 
L 2886 371 
C 2874 564 2765 1024 2586 1633 
L 2259 2752 
L 1818 2752 
L 1498 1658 
C 1338 1101 1216 627 1203 371 
L 1197 371 
C 1171 749 909 1633 870 1773 
L 582 2752 
L 83 2752 
L 915 0 
L 1402 0 
C 1734 1096 1990 1943 2010 2370 
C 2022 2160 2131 1707 2195 1484 
L 2618 0 
L 3181 0 
L 4013 2752 
z
" transform="scale(0.015625)"/>
       <path id="CMSS17-68" d="M 2618 1891 
C 2618 2292 2522 2820 1798 2820 
C 1395 2820 1133 2623 947 2407 
L 947 4448 
L 474 4448 
L 474 32 
L 960 32 
L 960 1573 
C 960 1973 1114 2432 1549 2432 
C 2112 2432 2131 2056 2131 1839 
L 2131 32 
L 2618 32 
L 2618 1891 
z
" transform="scale(0.015625)"/>
       <path id="CMSS17-62" d="M 954 4416 
L 480 4416 
L 480 -13 
L 966 -13 
L 966 274 
C 1210 38 1504 -64 1766 -64 
C 2381 -64 2880 549 2880 1352 
C 2880 2086 2496 2756 1926 2756 
C 1523 2756 1165 2591 954 2419 
L 954 4416 
z
M 966 2046 
C 1107 2222 1306 2368 1587 2368 
C 1965 2368 2394 2097 2394 1352 
C 2394 558 1882 325 1530 325 
C 1402 325 1267 356 1139 464 
C 966 615 966 709 966 797 
L 966 2046 
z
" transform="scale(0.015625)"/>
       <path id="CMSS17-73" d="M 2061 2627 
C 1683 2807 1389 2807 1197 2807 
C 742 2807 198 2648 198 2003 
C 198 1359 902 1218 1094 1179 
C 1389 1122 1715 1058 1715 740 
C 1715 337 1254 337 1171 337 
C 915 337 563 407 243 638 
L 166 210 
C 531 0 883 -64 1178 -64 
C 1965 -64 2163 416 2163 781 
C 2163 1094 1984 1305 1862 1401 
C 1651 1568 1574 1587 1050 1696 
C 960 1709 646 1779 646 2066 
C 646 2432 1050 2432 1139 2432 
C 1555 2432 1811 2303 1984 2208 
L 2061 2627 
z
" transform="scale(0.015625)"/>
      </defs>
      <use xlink:href="#CMSS17-6c" transform="scale(0.996264)"/>
      <use xlink:href="#CMSS17-69" transform="translate(22.180723 0) scale(0.996264)"/>
      <use xlink:href="#CMSS17-6e" transform="translate(44.361446 0) scale(0.996264)"/>
      <use xlink:href="#CMSS17-65" transform="translate(92.566389 0) scale(0.996264)"/>
      <use xlink:href="#CMSS17-61" transform="translate(134.205211 0) scale(0.996264)"/>
      <use xlink:href="#CMSS17-72" transform="translate(176.524678 0) scale(0.996264)"/>
      <use xlink:href="#CMSS17-77" transform="translate(239.663563 0) scale(0.996264)"/>
      <use xlink:href="#CMSS17-69" transform="translate(303.483108 0) scale(0.996264)"/>
      <use xlink:href="#CMSS17-74" transform="translate(325.663831 0) scale(0.996264)"/>
      <use xlink:href="#CMSS17-68" transform="translate(359.495398 0) scale(0.996264)"/>
      <use xlink:href="#CMSS17-62" transform="translate(438.929454 0) scale(0.996264)"/>
      <use xlink:href="#CMSS17-69" transform="translate(487.134397 0) scale(0.996264)"/>
      <use xlink:href="#CMSS17-61" transform="translate(509.31512 0) scale(0.996264)"/>
      <use xlink:href="#CMSS17-73" transform="translate(554.237041 0) scale(0.996264)"/>
     </g>
    </g>
    <g id="line2d_25">
     <path d="M 39.957642 59.800281 
L 51.957642 59.800281 
L 63.957642 59.800281 
" style="fill: none; stroke: #ff7f0e; stroke-width: 1.5; stroke-linecap: square"/>
    </g>
    <g id="text_21">
     <!-- quadratic -->
     <g transform="translate(73.557642 64.000281) scale(0.12 -0.12)">
      <defs>
       <path id="CMSS17-71" d="M 2611 2816 
L 2138 2816 
L 2138 2428 
C 2112 2460 1818 2816 1318 2816 
C 736 2816 211 2228 211 1399 
C 211 633 653 -5 1229 -5 
C 1498 -5 1837 91 2125 365 
L 2125 -1216 
L 2611 -1216 
L 2611 2816 
z
M 2138 914 
C 2138 832 2138 718 1939 554 
C 1888 510 1747 384 1504 384 
C 1050 384 698 850 698 1399 
C 698 2011 1126 2415 1562 2415 
C 1926 2415 2138 2061 2138 1797 
L 2138 914 
z
" transform="scale(0.015625)"/>
       <path id="CMSS17-75" d="M 2618 2739 
L 2131 2739 
L 2131 972 
C 2131 498 1786 306 1421 306 
C 998 306 960 447 960 709 
L 960 2739 
L 474 2739 
L 474 678 
C 474 179 646 -64 1088 -64 
C 1306 -64 1798 -13 2144 306 
L 2144 0 
L 2618 0 
L 2618 2739 
z
" transform="scale(0.015625)"/>
       <path id="CMSS17-64" d="M 2611 4416 
L 2138 4416 
L 2138 2438 
C 1939 2603 1613 2756 1254 2756 
C 672 2756 211 2131 211 1347 
C 211 562 666 -64 1235 -64 
C 1677 -64 1971 172 2125 306 
L 2125 -13 
L 2611 -13 
L 2611 4416 
z
M 2125 836 
C 2125 747 2125 653 1926 482 
C 1798 375 1645 325 1498 325 
C 1152 325 698 576 698 1340 
C 698 2134 1210 2368 1562 2368 
C 1798 2368 1990 2254 2125 2065 
L 2125 836 
z
" transform="scale(0.015625)"/>
       <path id="CMSS17-63" d="M 2464 2541 
C 2464 2585 2170 2714 2093 2739 
C 1882 2816 1613 2816 1542 2816 
C 710 2816 211 2093 211 1363 
C 211 595 768 -64 1517 -64 
C 1946 -64 2253 76 2502 242 
L 2464 664 
C 2189 453 1869 337 1523 337 
C 1024 337 698 774 698 1369 
C 698 1831 909 2414 1549 2414 
C 1901 2414 2099 2343 2394 2145 
L 2464 2541 
z
" transform="scale(0.015625)"/>
      </defs>
      <use xlink:href="#CMSS17-71" transform="scale(0.996264)"/>
      <use xlink:href="#CMSS17-75" transform="translate(48.204943 0) scale(0.996264)"/>
      <use xlink:href="#CMSS17-61" transform="translate(96.409886 0) scale(0.996264)"/>
      <use xlink:href="#CMSS17-64" transform="translate(141.331807 0) scale(0.996264)"/>
      <use xlink:href="#CMSS17-72" transform="translate(189.53675 0) scale(0.996264)"/>
      <use xlink:href="#CMSS17-61" transform="translate(221.446523 0) scale(0.996264)"/>
      <use xlink:href="#CMSS17-74" transform="translate(266.368443 0) scale(0.996264)"/>
      <use xlink:href="#CMSS17-69" transform="translate(300.20001 0) scale(0.996264)"/>
      <use xlink:href="#CMSS17-63" transform="translate(322.380733 0) scale(0.996264)"/>
     </g>
    </g>
    <g id="line2d_26">
     <path d="M 39.957642 76.524877 
L 51.957642 76.524877 
L 63.957642 76.524877 
" style="fill: none; stroke: #2ca02c; stroke-width: 1.5; stroke-linecap: square"/>
    </g>
    <g id="text_22">
     <!-- rbf -->
     <g transform="translate(73.557642 80.724877) scale(0.12 -0.12)">
      <defs>
       <path id="CMSS17-66" d="M 1075 2368 
L 1722 2368 
L 1722 2737 
L 1062 2737 
L 1062 3559 
C 1062 4014 1408 4092 1606 4092 
C 1670 4092 1850 4092 2080 4009 
L 2080 4429 
C 1933 4461 1754 4480 1613 4480 
C 1018 4480 602 3993 602 3359 
L 602 2737 
L 160 2737 
L 160 2368 
L 602 2368 
L 602 0 
L 1075 0 
L 1075 2368 
z
" transform="scale(0.015625)"/>
      </defs>
      <use xlink:href="#CMSS17-72" transform="scale(0.996264)"/>
      <use xlink:href="#CMSS17-62" transform="translate(31.909773 0) scale(0.996264)"/>
      <use xlink:href="#CMSS17-66" transform="translate(80.114716 0) scale(0.996264)"/>
     </g>
    </g>
   </g>
  </g>
 </g>
 <defs>
  <clipPath id="p90f7308c1a">
   <rect x="29.157642" y="11.35109" width="334.8" height="221.76"/>
  </clipPath>
 </defs>
</svg>
